<?xml version="1.0" standalone="no"?>
<!DOCTYPE svg PUBLIC "-//W3C//DTD SVG 20010904//EN"
 "http://www.w3.org/TR/2001/REC-SVG-20010904/DTD/svg10.dtd">
<svg version="1.0" xmlns="http://www.w3.org/2000/svg"
 width="300.000000pt" height="300.000000pt" viewBox="0 0 300.000000 300.000000"
 preserveAspectRatio="xMidYMid meet">
<metadata>
Created by potrace 1.11, written by Peter Selinger 2001-2013
</metadata>
<g transform="translate(0.000000,300.000000) scale(0.100000,-0.100000)"
fill="#000000" stroke="none">
<path d="M1399 2940 c-57 -33 -115 -67 -129 -75 -63 -38 -437 -253 -485 -280
-154 -86 -572 -331 -582 -341 -10 -10 -10 -13 0 -17 9 -4 9 -6 -1 -6 -9 -1
-10 -6 -3 -20 6 -10 7 -21 4 -25 -11 -10 -11 -46 0 -46 5 0 4 -7 -3 -15 -7 -8
-8 -15 -3 -15 5 0 9 -10 7 -22 -1 -13 -3 -23 -4 -23 -8 0 -6 -36 2 -41 6 -4 5
-10 -3 -15 -11 -7 -11 -9 -1 -9 10 0 10 -5 2 -20 -8 -15 -8 -20 2 -20 8 0 9
-3 3 -8 -13 -9 -16 -42 -4 -42 5 0 4 -11 -1 -25 -6 -16 -6 -26 1 -31 6 -4 6
-11 -2 -20 -9 -11 -9 -14 1 -14 9 0 9 -4 -1 -17 -12 -14 -12 -16 0 -8 10 6 12
4 6 -6 -13 -19 -14 -49 -2 -49 5 0 4 -7 -3 -15 -7 -8 -8 -15 -3 -15 5 0 9 -10
7 -22 -1 -13 -3 -23 -4 -23 -7 0 -5 -47 2 -51 5 -3 4 -12 -3 -20 -9 -11 -9
-14 1 -14 10 0 10 -3 1 -14 -9 -11 -9 -16 0 -21 8 -6 7 -10 -2 -16 -11 -7 -11
-9 -1 -9 10 0 10 -5 2 -20 -8 -15 -8 -20 2 -20 8 0 9 -3 3 -8 -12 -8 -16 -42
-6 -42 4 0 7 -10 5 -22 -1 -13 -3 -23 -4 -23 -1 0 -3 -10 -4 -22 -2 -13 2 -23
7 -23 5 0 4 -7 -3 -15 -7 -8 -8 -15 -3 -15 11 0 11 -29 0 -47 -4 -6 -3 -14 3
-18 6 -4 7 -12 3 -18 -11 -18 -11 -47 0 -47 5 0 4 -7 -3 -15 -7 -8 -8 -15 -3
-15 5 0 9 -10 7 -23 -1 -12 -3 -22 -4 -22 -8 0 -6 -36 2 -41 6 -4 5 -10 -3
-15 -11 -7 -11 -9 -1 -9 10 0 10 -5 2 -20 -8 -15 -8 -20 2 -20 8 0 9 -3 3 -8
-13 -9 -16 -42 -4 -42 5 0 4 -11 -1 -25 -6 -16 -6 -26 1 -31 6 -4 6 -11 -2
-20 -9 -11 -9 -14 1 -14 9 0 9 -4 -1 -17 -12 -14 -12 -16 0 -8 10 6 12 4 6 -6
-12 -18 -14 -49 -3 -49 4 0 8 -6 8 -12 1 -7 164 -107 363 -221 199 -114 490
-282 647 -372 257 -149 286 -163 305 -151 19 13 875 507 965 558 306 172 334
195 308 242 -5 9 -5 16 -1 16 6 0 9 132 2 150 -1 3 0 10 1 15 6 22 2 133 -4
144 -4 6 -4 11 1 11 9 0 9 133 0 147 -3 5 -3 14 1 20 9 14 6 128 -3 143 -3 5
-3 10 2 10 6 0 9 132 2 150 -1 3 0 10 1 15 6 22 2 133 -4 144 -4 6 -4 11 1 11
9 0 9 133 0 147 -3 5 -3 14 1 20 9 14 6 128 -3 143 -3 5 -3 10 2 10 6 0 8 59
4 126 -1 10 -201 132 -378 231 -23 13 -138 79 -255 146 -117 68 -233 135 -258
149 -60 34 -337 195 -376 219 l-30 18 -105 -59z"/>
</g>
</svg>
