<?xml version="1.0" standalone="no"?>
<!DOCTYPE svg PUBLIC "-//W3C//DTD SVG 20010904//EN"
 "http://www.w3.org/TR/2001/REC-SVG-20010904/DTD/svg10.dtd">
<svg version="1.0" xmlns="http://www.w3.org/2000/svg"
 width="500.000000pt" height="500.000000pt" viewBox="0 0 500.000000 500.000000"
 preserveAspectRatio="xMidYMid meet">
<metadata>
Created by potrace 1.11, written by Peter Selinger 2001-2013
</metadata>
<g transform="translate(0.000000,500.000000) scale(0.100000,-0.100000)"
fill="#000000" stroke="none">
<path d="M2405 4950 c-91 -54 -377 -220 -445 -258 -25 -13 -52 -31 -61 -38 -8
-8 -18 -14 -22 -14 -3 0 -136 -75 -294 -166 -158 -92 -301 -174 -318 -183 -16
-9 -49 -29 -72 -44 -24 -15 -45 -27 -48 -27 -3 0 -38 -19 -78 -43 -39 -24
-169 -99 -287 -167 -118 -68 -264 -152 -323 -187 -60 -34 -113 -63 -118 -63
-5 0 -8 -496 -7 -1256 3 -1105 5 -1258 18 -1265 8 -5 52 -31 98 -59 46 -27 85
-50 87 -50 3 0 39 -21 82 -46 43 -25 107 -62 143 -82 36 -19 72 -41 81 -48 8
-8 18 -14 22 -14 3 0 43 -22 89 -49 118 -70 584 -339 638 -369 25 -14 78 -45
118 -69 41 -24 75 -43 77 -43 2 0 32 -17 66 -38 35 -22 84 -50 109 -64 25 -14
96 -55 159 -92 62 -36 115 -66 116 -66 2 0 60 -34 130 -75 l127 -75 52 28 c28
16 94 53 146 84 102 60 192 111 450 260 91 52 242 139 335 193 622 360 743
430 770 444 17 9 32 19 33 24 2 4 7 7 11 7 4 0 88 46 187 103 l179 103 0 1253
0 1254 -116 67 c-63 37 -135 78 -160 92 -41 23 -394 227 -869 503 -107 62
-211 122 -230 132 -19 11 -204 118 -410 237 -206 119 -377 216 -380 215 -3 -1
-41 -23 -85 -49z"/>
</g>
</svg>
